<?xml version="1.0" standalone="no"?>
<!DOCTYPE svg PUBLIC "-//W3C//DTD SVG 20010904//EN"
 "http://www.w3.org/TR/2001/REC-SVG-20010904/DTD/svg10.dtd">
<svg version="1.0" xmlns="http://www.w3.org/2000/svg"
 width="392.000000pt" height="392.000000pt" viewBox="0 0 392.000000 392.000000"
 preserveAspectRatio="xMidYMid meet">
<metadata>
Created by potrace 1.11, written by Peter Selinger 2001-2013
</metadata>
<g transform="translate(0.000000,392.000000) scale(0.100000,-0.100000)"
fill="#000000" stroke="none">
<path d="M248 3903 c-97 -25 -188 -108 -223 -204 -19 -53 -19 -88 -20 -1744
l0 -1690 31 -66 c38 -81 80 -122 164 -162 l65 -32 1695 0 1695 0 65 31 c101
48 166 127 188 231 4 21 8 792 7 1713 l-1 1675 -28 61 c-34 76 -93 135 -171
171 l-60 27 -1679 1 c-1297 0 -1690 -3 -1728 -12z"/>
</g>
</svg>
